<?xml version="1.0" encoding="UTF-8"?>
<svg width="28px" height="28px" viewBox="0 0 28 28" version="1.1" xmlns="http://www.w3.org/2000/svg" xmlns:xlink="http://www.w3.org/1999/xlink">
    <title>ic/touxiang </title>
    <defs>
        <path d="M4.10993786,23.8221938 C9.55342203,29.265488 18.3788996,29.2653339 23.8221938,23.8218498 C29.265488,18.3783656 29.2653339,9.552888 23.8218498,4.10959383 C18.3783656,-1.33370034 9.552888,-1.33354631 4.10959383,4.10993786 C-1.33370034,9.55342203 -1.33354631,18.3788996 4.10993786,23.8221938 Z" id="path-1"></path>
    </defs>
    <g id="优云C端" stroke="none" stroke-width="1" fill="none" fill-rule="evenodd">
        <g id="切图" transform="translate(-367.000000, -74.000000)">
            <g id="ic/touxiang-" transform="translate(367.000000, 74.000000)">
                <mask id="mask-2" fill="white">
                    <use xlink:href="#path-1"></use>
                </mask>
                <use id="蒙版" fill="#EDF0F5" fill-rule="nonzero" xlink:href="#path-1"></use>
                <path d="M14,28 C18.0721649,28 21.6804124,26.19678 24,23.3416816 C21.9381444,20.1359571 18.2268041,17.9821109 14,17.9821109 C9.77319588,17.9821109 6.06185565,20.1359571 4,23.3416816 C6.31958762,26.19678 9.92783506,28 14,28 Z M14,7 C11.2352941,7 9,9.18331053 9,11.8837209 C9,14.5841313 11.2352941,16.7674419 14,16.7674419 C16.7647059,16.7674419 19,14.5841313 19,11.8837209 C19,9.18331053 16.7647059,7 14,7 Z" id="形状" fill="#CFD7E2" fill-rule="nonzero" mask="url(#mask-2)"></path>
            </g>
        </g>
    </g>
</svg>
