<?xml version="1.0" encoding="UTF-8"?>
<svg width="280px" height="191px" viewBox="0 0 280 191" version="1.1" xmlns="http://www.w3.org/2000/svg" xmlns:xlink="http://www.w3.org/1999/xlink">
    <!-- Generator: Sketch 59 (86127) - https://sketch.com -->
    <title>通知类缺失页面</title>
    <desc>Created with Sketch.</desc>
    <defs>
        <linearGradient x1="50%" y1="0%" x2="50%" y2="100%" id="linearGradient-1">
            <stop stop-color="#D4D8E6" offset="0%"></stop>
            <stop stop-color="#EDEEF2" offset="100%"></stop>
        </linearGradient>
        <linearGradient x1="50%" y1="0%" x2="50%" y2="100%" id="linearGradient-2">
            <stop stop-color="#EDEEF2" offset="0%"></stop>
            <stop stop-color="#D4D8E6" offset="100%"></stop>
        </linearGradient>
        <linearGradient x1="67.6748091%" y1="3.00230369%" x2="50%" y2="31.9920206%" id="linearGradient-3">
            <stop stop-color="#F5F6FA" offset="0%"></stop>
            <stop stop-color="#EDEEF2" offset="100%"></stop>
        </linearGradient>
        <linearGradient x1="13.4051983%" y1="41.6120847%" x2="28.496845%" y2="49.4125651%" id="linearGradient-4">
            <stop stop-color="#EDEEF2" offset="0%"></stop>
            <stop stop-color="#D4D8E6" offset="100%"></stop>
        </linearGradient>
        <linearGradient x1="60.5781809%" y1="100%" x2="39.4218191%" y2="0%" id="linearGradient-5">
            <stop stop-color="#F5F6FA" offset="0%"></stop>
            <stop stop-color="#EDEEF2" offset="100%"></stop>
        </linearGradient>
        <linearGradient x1="13.4051983%" y1="32.2376203%" x2="28.496845%" y2="48.7560387%" id="linearGradient-6">
            <stop stop-color="#EDEEF2" offset="0%"></stop>
            <stop stop-color="#D4D8E6" offset="100%"></stop>
        </linearGradient>
        <linearGradient x1="93.8063401%" y1="38.0062777%" x2="50%" y2="45.404398%" id="linearGradient-7">
            <stop stop-color="#F5F6FA" offset="0%"></stop>
            <stop stop-color="#EDEEF2" offset="100%"></stop>
        </linearGradient>
        <linearGradient x1="93.8063401%" y1="38.4369029%" x2="50%" y2="45.5693995%" id="linearGradient-8">
            <stop stop-color="#F5F6FA" offset="0%"></stop>
            <stop stop-color="#EDEEF2" offset="100%"></stop>
        </linearGradient>
        <linearGradient x1="58.0218008%" y1="3.00230369%" x2="50%" y2="31.9920206%" id="linearGradient-9">
            <stop stop-color="#F5F6FA" offset="0%"></stop>
            <stop stop-color="#EDEEF2" offset="100%"></stop>
        </linearGradient>
        <linearGradient x1="93.8063401%" y1="37.9569449%" x2="50%" y2="45.3854953%" id="linearGradient-10">
            <stop stop-color="#F5F6FA" offset="0%"></stop>
            <stop stop-color="#EDEEF2" offset="100%"></stop>
        </linearGradient>
        <linearGradient x1="82.0476366%" y1="3.00230369%" x2="50%" y2="31.9920206%" id="linearGradient-11">
            <stop stop-color="#F5F6FA" offset="0%"></stop>
            <stop stop-color="#EDEEF2" offset="100%"></stop>
        </linearGradient>
        <linearGradient x1="93.8063401%" y1="17.9757464%" x2="50%" y2="37.7293539%" id="linearGradient-12">
            <stop stop-color="#F5F6FA" offset="0%"></stop>
            <stop stop-color="#EDEEF2" offset="100%"></stop>
        </linearGradient>
        <linearGradient x1="56.240195%" y1="3.00230369%" x2="50%" y2="31.9920206%" id="linearGradient-13">
            <stop stop-color="#F5F6FA" offset="0%"></stop>
            <stop stop-color="#EDEEF2" offset="100%"></stop>
        </linearGradient>
        <linearGradient x1="47.8221084%" y1="0%" x2="48.720268%" y2="46.4983259%" id="linearGradient-14">
            <stop stop-color="#EDEEF2" offset="0%"></stop>
            <stop stop-color="#D4D8E6" offset="100%"></stop>
        </linearGradient>
        <filter x="-15.0%" y="-1000.0%" width="130.0%" height="2100.0%" filterUnits="objectBoundingBox" id="filter-15">
            <feGaussianBlur stdDeviation="11.6666667" in="SourceGraphic"></feGaussianBlur>
        </filter>
    </defs>
    <g id="缺失页面" stroke="none" stroke-width="1" fill="none" fill-rule="evenodd">
        <g id="4.暂无群公告" transform="translate(-590.000000, -360.000000)">
            <g id="编组-17备份-11" transform="translate(492.000000, 252.000000)">
                <g id="编组" transform="translate(98.000000, 108.000000)">
                    <g id="编组-2">
                        <g id="矩形-2">
                            <g id="编组-3" transform="translate(97.603939, 144.083333)" fill="url(#linearGradient-1)">
                                <rect id="矩形" x="0.396666667" y="0.513333333" width="11.0833333" height="67.0833333"></rect>
                            </g>
                            <g id="编组-3备份" transform="translate(157.312728, 144.083333)" fill="url(#linearGradient-1)">
                                <rect id="矩形" x="0.396666667" y="0.513333333" width="11.0833333" height="67.0833333"></rect>
                            </g>
                            <path d="M182.617647,70.5833333 C189.060969,70.5833333 194.284314,75.8066779 194.284314,82.25 L194.284314,82.25 L194.284314,146.416667 C194.284314,152.859989 189.060969,158.083333 182.617647,158.083333 L182.617647,158.083333 L83.9656863,158.083333 C77.5223642,158.083333 72.2990196,152.859989 72.2990196,146.416667 L72.2990196,146.416667 L72.2990196,82.25 C72.2990196,75.8066779 77.5223642,70.5833333 83.9656863,70.5833333 L83.9656863,70.5833333 Z M173.541667,128.333333 L93.0416667,128.333333 C91.10867,128.333333 89.5416667,129.900337 89.5416667,131.833333 C89.5416667,133.76633 91.10867,135.333333 93.0416667,135.333333 L93.0416667,135.333333 L173.541667,135.333333 C175.474663,135.333333 177.041667,133.76633 177.041667,131.833333 C177.041667,129.900337 175.474663,128.333333 173.541667,128.333333 L173.541667,128.333333 Z M173.541667,110.833333 L93.0416667,110.833333 C91.10867,110.833333 89.5416667,112.400337 89.5416667,114.333333 C89.5416667,116.26633 91.10867,117.833333 93.0416667,117.833333 L93.0416667,117.833333 L173.541667,117.833333 C175.474663,117.833333 177.041667,116.26633 177.041667,114.333333 C177.041667,112.400337 175.474663,110.833333 173.541667,110.833333 L173.541667,110.833333 Z M173.541667,93.3333333 L93.0416667,93.3333333 C91.10867,93.3333333 89.5416667,94.9003367 89.5416667,96.8333333 C89.5416667,98.76633 91.10867,100.333333 93.0416667,100.333333 L93.0416667,100.333333 L173.541667,100.333333 C175.474663,100.333333 177.041667,98.76633 177.041667,96.8333333 C177.041667,94.9003367 175.474663,93.3333333 173.541667,93.3333333 L173.541667,93.3333333 Z" id="形状结合" fill="url(#linearGradient-2)"></path>
                            <g id="plant_22_" transform="translate(67.272855, 164.176842) rotate(48.000000) translate(-67.272855, -164.176842) translate(20.772855, 120.176842)">
                                <path d="M59.3374605,81.8938473 C58.6822409,82.2221477 58.6238915,77.143601 53.4676815,75.611229 C48.3114714,74.078857 43.3174731,70.3752365 42.2072759,68.0763081 C41.0966332,65.7768849 35.6628105,64.6315801 32.6655284,58.9831475 C29.6682463,53.3347148 31.7091466,51.2820152 30.8163639,48.447703 C30.2146911,46.5377144 27.610861,44.3819853 26.0583298,36.8591873 C23.5471889,24.6974541 28.0726395,16.9988803 26.4143177,13.4425007 C24.3576127,9.03239986 20.0646828,8.33660806 20.0646828,8.33660806 C20.0646828,8.33660806 19.7078983,5.96148492 27.8966359,9.80483119 C36.0853736,13.6481775 37.6670303,11.5394248 40.0706943,12.7337493 C42.4743582,13.9280739 40.8191483,17.3737279 48.0990921,19.6176705 C55.3790359,21.861613 49.8216478,24.2686018 58.5192983,28.9324596 C67.2164548,33.5967622 67.805214,50.3856198 66.9887215,55.7303458 C65.2173127,67.3240445 60.9854101,68.1235613 59.9941129,76.4421332 C59.4949107,80.6292616 61.0023933,81.0587472 59.3374605,81.8938473 Z" id="Path" fill="url(#linearGradient-3)" transform="translate(43.659402, 44.759973) rotate(-48.000000) translate(-43.659402, -44.759973) "></path>
                                <path d="M87.8891596,52.501613 C81.7565719,48.9327237 75.8757073,45.937489 70.2898516,43.4201891 C67.3557457,38.8156638 62.7621319,30.9799279 56.4157793,27.157115 C60.8935206,30.5398823 64.6160926,36.6712726 67.2791633,42.0987229 C62.1974197,39.922425 57.3793861,38.1456247 52.8616887,36.6985262 C50.2525587,32.0873537 45.3765888,26.0443714 40.5558914,23.7145228 C44.3557117,26.1773157 47.9597474,31.406679 50.108051,35.8443591 C26.5812631,28.8023005 11.9120654,30.7738642 11.9120654,30.7738642 C22.4884317,30.9759395 33.6548157,33.3303828 44.0507139,36.4924625 C40.3594408,38.5517694 35.8683808,40.7732684 31.9167275,42.2901627 C36.8413106,41.1827368 42.8780038,39.1187768 47.0314352,37.4270608 C51.8241633,38.975197 56.419109,40.6709013 60.6757601,42.3792353 C58.9816236,44.0071381 56.3798189,46.1089872 53.8386141,47.6644353 C53.9771284,47.5859981 53.1074184,48.2028596 49.6778575,49.741025 C49.8729762,49.6672409 57.3334366,47.6637705 62.9159627,43.2918978 C77.0637339,49.1407815 86.954188,54.8334557 86.954188,54.8334557 L87.8891596,52.501613 Z" id="Path" fill="url(#linearGradient-4)" opacity="0.939499628"></path>
                                <g id="编组-4" transform="translate(24.393335, 0.156684)">
                                    <path d="M36.3595486,64.8645498 C35.8059201,64.9947409 36.6733825,61.0844833 33.0514277,58.949375 C29.4299184,56.8147616 26.3209251,53.0429899 25.8943791,51.0711994 C25.467833,49.0994089 21.5670674,47.2099664 20.3163238,42.3161224 C19.0660741,37.4218336 20.9762102,36.2252634 20.8108786,33.8829629 C20.6990229,32.3043815 19.1184531,30.1655244 19.2955522,24.1007461 C19.5823079,14.296367 24.3845746,9.22682912 23.7699073,6.18780199 C23.0076527,2.41961206 19.887965,1.08770039 19.887965,1.08770039 C19.887965,1.08770039 20.0446592,-0.802580296 25.5436062,3.67045872 C31.0425532,8.14349773 32.6163915,6.8178099 34.2184865,8.18187105 C35.8205815,9.5459322 33.9510951,11.8833803 39.0499574,14.9593996 C44.1488198,18.0354189 39.5166476,18.8503404 45.2519864,24.0478549 C50.9873251,29.2453694 48.417525,42.2461498 46.8408666,46.1972699 C43.4202956,54.770276 40.0784089,54.5972633 37.8351049,60.8001511 C36.705763,63.9228567 37.7677194,64.5330545 36.3595486,64.8645498 Z" id="Path" fill="url(#linearGradient-5)" transform="translate(34.041079, 32.779411) rotate(-48.000000) translate(-34.041079, -32.779411) "></path>
                                    <path d="M41.7331491,27.3326588 C44.5633693,30.7413502 46.3280948,36.093687 47.4055762,40.7101772 C43.9000988,38.1024751 40.5278082,35.8497343 37.3253309,33.9014358 C36.1452955,29.9137721 33.4815589,24.4105435 30.2011672,21.7350398 C32.6744467,24.3181472 34.5084294,28.9625557 35.3668185,32.7315261 C18.6039239,22.9627803 7.02332883,21.6905035 7.02332883,21.6905035 C15.0837959,23.8355595 23.2155179,27.7241797 30.6140464,32.0794344 C27.4235559,32.9449017 23.5924366,33.7831154 20.2987263,34.1885955 C24.2656961,34.2770034 29.2508792,33.8489228 32.7297192,33.3490523 C36.1239857,35.4249773 39.3397817,37.5753511 42.2951975,39.6712177 C40.7096083,40.5872038 38.3541992,41.6899766 36.1286472,42.3919224 C36.2485153,42.3586863 35.4740339,42.662464 32.5758885,43.1822762 C32.7383764,43.1629992 38.801041,43.0460083 43.84749,40.784626 C53.6447134,47.8845154 60.2101583,54.0644304 60.2101583,54.0644304 L61.3395826,52.4730873 C57.2767183,48.6123854 53.3097485,45.2469009 49.4792952,42.2868964 C48.0488686,38.2453902 45.9192112,31.4300016 41.7331491,27.3326588 Z" id="Path" fill="url(#linearGradient-6)" opacity="0.939499628"></path>
                                </g>
                            </g>
                            <g id="plant_12_" transform="translate(171.500000, 123.666667)">
                                <path d="M41.3328475,53.3676347 C48.2589428,52.3935366 50.0019506,60.3327769 45.535121,62.1157852 C41.0682914,63.8987934 29.946728,56.785493 29.946728,56.785493 L41.3328475,53.3676347 Z" id="Path" fill="url(#linearGradient-7)"></path>
                                <path d="M53.3314442,28.6328651 C59.9444957,26.3534414 63.1693578,33.8141475 59.1244569,36.4171352 C55.079556,39.020123 42.8061952,34.1615531 42.8061952,34.1615531 L53.3314442,28.6328651 Z" id="Path" fill="url(#linearGradient-8)"></path>
                                <path d="M29.946728,56.7846415 C29.946728,56.7846415 30.3584487,34.9542851 24.3442637,37.3716492 C18.5019127,39.7200431 22.591048,52.9197539 29.946728,56.7846415 Z" id="Path" fill="url(#linearGradient-9)"></path>
                                <path d="M27.1063654,68.1536609 C35.1323675,64.7264363 37.4317086,72.2773997 33.6802863,75.2890999 C29.928864,78.3016516 17.2157107,74.7535163 17.2157107,74.7535163 L27.1063654,68.1536609 Z" id="Path" fill="url(#linearGradient-10)"></path>
                                <path d="M17.3620247,74.7756548 C17.3620247,74.7756548 16.0809267,54.3706833 6.3340341,57.8498484 C-4.00066645,61.5393302 9.1990659,73.2319137 17.3620247,74.7756548 Z" id="Path" fill="url(#linearGradient-11)"></path>
                                <path d="M42.784078,34.2432956 C42.784078,34.2432956 36.2705541,14.8660657 27.755421,20.7515257 C18.7264876,26.9929062 34.4994745,34.8674337 42.784078,34.2432956 Z" id="Path" fill="url(#linearGradient-12)"></path>
                                <path d="M42.4769888,34.9943048 C42.4769888,34.9943048 35.4343527,6.67393453 44.9983529,0.993682266 C55.9965703,-5.53890586 56.5001626,27.0405893 42.4769888,34.9943048 Z" id="Path" fill="url(#linearGradient-13)"></path>
                                <path d="M42.7832273,148.105489 C42.4165917,148.105489 42.1188598,147.80747 42.1188598,147.44048 C42.1188598,121.350147 33.7645019,112.683739 26.3935101,105.036558 C20.8131631,99.2481673 15.543308,93.7799346 15.543308,81.6590545 C15.543308,67.3498596 22.235471,62.0212704 28.7081631,56.866384 C34.7835958,52.0282498 41.0648888,47.0257791 42.1222625,34.3284441 C42.1528863,33.9623058 42.4769888,33.6889793 42.8393711,33.7213357 C43.205156,33.7519891 43.4765174,34.0729988 43.4458936,34.439137 C42.3417334,47.7086695 35.8307615,52.8933579 29.5350072,57.9077494 C23.0231846,63.0941407 16.8728937,67.9918788 16.8728937,81.659906 C16.8728937,93.2443509 21.7284761,98.2817325 27.3505055,104.113549 C34.8958833,111.941245 43.4484455,120.813712 43.4484455,147.441331 C43.4484455,147.80747 43.1507136,148.105489 42.7832273,148.105489 Z" id="Path" fill="url(#linearGradient-14)" opacity="0.939499628"></path>
                            </g>
                            <ellipse id="椭圆形" fill-opacity="0.6" fill="#37589A" filter="url(#filter-15)" cx="140" cy="191.333333" rx="116.666667" ry="1.75"></ellipse>
                        </g>
                    </g>
                </g>
            </g>
        </g>
    </g>
</svg>